<?xml version="1.0" standalone="no"?>
<!DOCTYPE svg PUBLIC "-//W3C//DTD SVG 20010904//EN"
 "http://www.w3.org/TR/2001/REC-SVG-20010904/DTD/svg10.dtd">
<svg version="1.0" xmlns="http://www.w3.org/2000/svg"
 width="700.000000pt" height="700.000000pt" viewBox="0 0 700.000000 700.000000"
 preserveAspectRatio="xMidYMid meet">
<metadata>
Created by potrace 1.11, written by Peter Selinger 2001-2013
</metadata>
<g transform="translate(0.000000,700.000000) scale(0.100000,-0.100000)"
fill="#000000" stroke="none">
<path d="M3255 6990 c-157 -10 -377 -43 -530 -80 -22 -5 -71 -17 -110 -26
-283 -66 -702 -249 -985 -429 -235 -149 -394 -278 -601 -484 -207 -208 -336
-368 -484 -601 -184 -292 -362 -698 -429 -985 -9 -39 -21 -88 -26 -110 -115
-478 -115 -1072 0 -1550 5 -22 17 -71 26 -110 89 -379 328 -871 591 -1219 115
-152 167 -211 322 -367 207 -207 367 -335 601 -484 286 -182 702 -363 989
-430 36 -9 84 -20 106 -25 479 -115 1071 -115 1550 0 22 5 70 16 106 25 287
67 703 248 989 430 234 149 394 277 601 484 207 207 335 367 484 601 182 286
363 702 430 989 9 36 20 84 25 106 115 478 115 1072 0 1550 -5 22 -16 70 -25
106 -67 285 -249 704 -430 989 -149 234 -277 394 -484 601 -156 155 -215 207
-367 322 -348 263 -840 502 -1219 591 -38 9 -88 21 -110 26 -310 74 -662 102
-1020 80z m-1300 -1801 c260 -30 459 -165 572 -386 64 -125 77 -185 77 -353 0
-123 -3 -156 -23 -220 -79 -256 -264 -436 -515 -500 -106 -27 -291 -27 -392
-1 -206 53 -373 186 -468 372 -57 111 -80 214 -81 349 0 222 72 399 222 541
119 114 254 177 418 198 99 12 91 12 190 0z m1515 -31 c90 -31 144 -63 195
-115 78 -79 115 -171 115 -288 0 -161 -84 -309 -213 -373 -90 -45 -142 -53
-364 -59 l-213 -5 0 -299 0 -299 -95 0 -95 0 0 731 0 731 313 -5 c247 -3 321
-7 357 -19z m1097 -273 c68 -159 130 -305 138 -324 8 -18 15 -35 15 -37 0 -2
11 -27 24 -56 75 -166 316 -737 316 -749 0 -5 -33 -9 -74 -9 l-74 0 -55 128
c-31 70 -75 172 -100 227 l-44 100 -382 0 -383 0 -57 -130 c-32 -71 -77 -174
-101 -227 l-42 -98 -74 0 c-41 0 -74 4 -74 9 0 5 9 28 19 52 10 24 76 179 146
344 70 165 135 318 145 340 25 55 290 675 301 703 8 22 12 23 120 20 l112 -3
124 -290z m833 -360 l0 -655 235 0 235 0 0 -75 0 -75 -305 0 -305 0 0 730 0
730 70 0 70 0 0 -655z m-3783 -941 c94 -19 135 -40 190 -94 41 -41 83 -127 83
-171 0 -18 -6 -20 -82 -17 l-81 3 -11 33 c-13 39 -57 87 -100 109 -49 26 -180
23 -233 -5 -65 -34 -93 -83 -93 -162 0 -125 37 -153 297 -221 186 -48 234 -74
286 -154 31 -47 32 -54 32 -150 0 -92 -2 -104 -29 -153 -37 -66 -92 -116 -165
-151 -52 -24 -66 -26 -191 -26 -129 1 -138 2 -200 31 -110 52 -179 139 -180
227 l0 38 77 -3 76 -3 14 -40 c48 -139 256 -180 391 -77 46 35 62 71 62 137 0
60 -15 98 -52 131 -36 33 -58 42 -201 79 -225 57 -284 88 -334 173 -26 43 -28
55 -28 152 0 89 3 111 22 145 40 75 126 140 213 163 102 26 137 27 237 6z
m1988 -8 c152 -42 272 -134 351 -268 95 -163 98 -407 8 -587 -65 -130 -215
-247 -369 -286 -76 -19 -224 -19 -300 0 -161 41 -306 157 -375 300 -47 96 -60
156 -60 279 0 98 17 182 52 256 71 150 231 277 390 309 29 6 62 13 73 15 34 8
177 -3 230 -18z m-805 -56 l0 -60 -160 0 -160 0 0 -515 0 -515 -80 0 -80 0 0
515 0 515 -160 0 -160 0 0 60 0 60 400 0 400 0 0 -60z m1807 -389 c164 -248
301 -450 306 -450 4 -1 7 202 7 449 l0 450 75 0 75 0 0 -575 0 -575 -78 0 -77
0 -300 451 -300 451 -3 -451 -2 -451 -80 0 -80 0 0 575 0 575 80 0 79 0 298
-449z m1263 389 l0 -60 -230 0 -230 0 0 -195 0 -195 205 0 205 0 0 -60 0 -60
-205 0 -205 0 0 -200 0 -200 230 0 230 0 0 -60 0 -60 -305 0 -305 0 0 575 0
575 305 0 305 0 0 -60z m-1128 -1330 c10 -12 18 -37 18 -56 0 -32 -2 -34 -35
-34 -28 0 -35 4 -35 19 0 30 -11 51 -26 51 -20 0 -25 -33 -22 -145 3 -88 5
-100 22 -103 23 -5 36 14 36 51 0 17 -5 27 -15 27 -9 0 -15 9 -15 25 0 23 4
25 45 25 l45 0 0 -90 0 -91 -32 2 c-18 1 -46 -2 -63 -5 -72 -15 -104 38 -104
174 0 143 28 185 119 176 30 -3 50 -11 62 -26z m549 -1 c10 -13 21 -43 25 -67
10 -63 0 -193 -17 -220 -33 -53 -137 -52 -170 2 -17 27 -19 46 -17 149 3 117
3 119 32 144 25 22 37 25 79 20 37 -3 55 -10 68 -28z m-270 2 c31 -25 34 -108
5 -140 -19 -20 -19 -22 3 -93 11 -40 21 -76 21 -80 0 -5 -17 -8 -39 -8 -37 0
-39 2 -46 38 -10 60 -28 112 -37 112 -4 0 -8 -34 -8 -75 l0 -75 -40 0 -40 0 0
170 0 170 79 0 c63 0 84 -4 102 -19z m441 -123 c3 -140 4 -143 26 -146 22 -3
22 -3 22 142 l0 146 41 0 40 0 -3 -149 c-3 -127 -6 -152 -21 -169 -37 -41
-144 -35 -167 8 -6 10 -10 84 -10 164 l0 146 35 0 34 0 3 -142z m368 132 c24
-13 43 -72 35 -110 -10 -44 -42 -70 -87 -70 l-38 0 0 -75 0 -75 -40 0 -40 0 0
170 0 170 76 0 c41 0 84 -4 94 -10z"/>
<path d="M1711 5005 c-195 -55 -332 -200 -376 -400 -25 -109 -17 -274 17 -371
59 -169 195 -295 366 -339 74 -19 204 -21 282 -4 173 37 321 172 382 346 20
59 23 87 23 213 0 168 -17 237 -86 340 -66 98 -141 155 -274 210 -47 20 -270
23 -334 5z"/>
<path d="M2997 5023 c-4 -3 -7 -127 -7 -276 l0 -269 208 4 c218 4 232 7 299
56 71 52 104 164 83 278 -23 120 -93 183 -227 203 -80 12 -345 15 -356 4z"/>
<path d="M4265 4882 c-32 -75 -76 -174 -97 -219 -21 -46 -38 -85 -38 -88 0 -2
-18 -43 -40 -89 -40 -86 -70 -155 -70 -162 0 -2 140 -4 311 -4 l310 0 -7 22
c-3 12 -26 63 -50 115 -24 52 -44 96 -44 98 0 2 -17 41 -38 87 -21 46 -67 149
-103 230 -35 82 -66 148 -69 148 -3 0 -32 -62 -65 -138z"/>
<path d="M3321 3444 c-62 -16 -154 -69 -193 -111 -128 -136 -156 -391 -61
-565 134 -245 501 -291 689 -85 60 66 90 125 109 214 19 90 19 143 -3 234 -29
122 -95 214 -194 272 -94 55 -234 71 -347 41z m227 -276 c86 -57 108 -187 46
-266 -37 -45 -106 -82 -154 -82 -50 1 -112 32 -147 75 -77 93 -40 241 72 292
47 21 135 12 183 -19z"/>
<path d="M3383 3100 c-44 -27 -62 -84 -39 -129 23 -43 73 -73 111 -66 37 7 82
49 90 85 9 40 -18 96 -54 114 -40 21 -69 20 -108 -4z"/>
<path d="M5197 2163 c-4 -3 -7 -60 -7 -125 0 -118 0 -119 23 -116 21 3 22 8
25 112 2 71 -1 113 -9 122 -13 15 -22 18 -32 7z"/>
<path d="M4920 2115 c0 -37 3 -45 18 -45 24 0 42 19 42 45 0 26 -18 45 -42 45
-15 0 -18 -8 -18 -45z"/>
<path d="M5740 2115 c0 -42 2 -46 23 -43 19 3 22 9 22 43 0 34 -3 40 -22 43
-21 3 -23 -1 -23 -43z"/>
</g>
</svg>
